<?xml version="1.0" standalone="no"?>
<svg viewBox="0 0 200 200" xmlns="http://www.w3.org/2000/svg">
  <path fill="#FF0066" d="M45.2,-76.6C59.1,-70.3,71,-59.1,78.9,-45.5C86.9,-32,90.7,-16,89.8,-0.5C88.9,14.9,83.3,29.9,74.9,42.6C66.5,55.3,55.3,65.8,42.3,73.3C29.4,80.7,14.7,85,-0.2,85.2C-15,85.5,-30,81.7,-42.2,73.9C-54.4,66.1,-63.8,54.2,-72,41.2C-80.3,28.2,-87.3,14.1,-88.6,-0.8C-90,-15.6,-85.6,-31.2,-77.3,-44.1C-69,-57,-56.8,-67.1,-43.3,-73.6C-29.7,-80,-14.9,-82.8,0.4,-83.5C15.7,-84.2,31.4,-82.9,45.2,-76.6Z" transform="translate(100 100)" />
</svg>
